<?xml version="1.0" encoding="UTF-8" standalone="no"?>
<!DOCTYPE svg PUBLIC "-//W3C//DTD SVG 1.1//EN"
 "http://www.w3.org/Graphics/SVG/1.1/DTD/svg11.dtd">
<!-- Generated by graphviz version 15.1.0 (20260618.0150)
 -->
<!-- Title: CMSProviderComplianceProjectTree Pages: 1 -->
<svg width="1573pt" height="580pt"
 viewBox="0.00 0.00 1573.00 580.00" xmlns="http://www.w3.org/2000/svg" xmlns:xlink="http://www.w3.org/1999/xlink">
<g id="graph0" class="graph" transform="scale(1 1) rotate(0) translate(14.4 565.25)">
<title>CMSProviderComplianceProjectTree</title>
<polygon fill="white" stroke="none" points="-14.4,14.4 -14.4,-565.25 1558.93,-565.25 1558.93,14.4 -14.4,14.4"/>
<text xml:space="preserve" text-anchor="middle" x="772.27" y="-533.55" font-family="Times New Roman,serif" font-size="14.00">Insight &#45; Visual .dot Tree</text>
<!-- root -->
<g id="node1" class="node">
<title>root</title>
<path fill="#dbeafe" stroke="#1d4ed8" stroke-width="1.3" d="M1098.16,-526.35C1098.16,-526.35 1011.13,-526.35 1011.13,-526.35 1005.13,-526.35 999.13,-520.35 999.13,-514.35 999.13,-514.35 999.13,-498.33 999.13,-498.33 999.13,-492.33 1005.13,-486.33 1011.13,-486.33 1011.13,-486.33 1098.16,-486.33 1098.16,-486.33 1104.16,-486.33 1110.16,-492.33 1110.16,-498.33 1110.16,-498.33 1110.16,-514.35 1110.16,-514.35 1110.16,-520.35 1104.16,-526.35 1098.16,-526.35"/>
<text xml:space="preserve" text-anchor="middle" x="1054.64" y="-511.09" font-family="Segoe UI" font-size="10.00">CMS Provider Project</text>
<text xml:space="preserve" text-anchor="middle" x="1054.64" y="-496.84" font-family="Segoe UI" font-size="10.00">(Workspace Root)</text>
</g>
<!-- code_branch -->
<g id="node2" class="node">
<title>code_branch</title>
<path fill="#eff6ff" stroke="#334155" d="M1077.53,-435.33C1077.53,-435.33 1031.75,-435.33 1031.75,-435.33 1025.75,-435.33 1019.75,-429.33 1019.75,-423.33 1019.75,-423.33 1019.75,-411.33 1019.75,-411.33 1019.75,-405.33 1025.75,-399.33 1031.75,-399.33 1031.75,-399.33 1077.53,-399.33 1077.53,-399.33 1083.53,-399.33 1089.53,-405.33 1089.53,-411.33 1089.53,-411.33 1089.53,-423.33 1089.53,-423.33 1089.53,-429.33 1083.53,-435.33 1077.53,-435.33"/>
<text xml:space="preserve" text-anchor="middle" x="1054.64" y="-414.95" font-family="Segoe UI" font-size="10.00">ETL Pipeline</text>
</g>
<!-- root&#45;&gt;code_branch -->
<g id="edge1" class="edge">
<title>root&#45;&gt;code_branch</title>
<path fill="none" stroke="#475569" d="M1054.64,-486.03C1054.64,-473.59 1054.64,-457.28 1054.64,-443.79"/>
<polygon fill="#475569" stroke="#475569" points="1056.92,-443.83 1054.64,-437.33 1052.37,-443.83 1056.92,-443.83"/>
</g>
<!-- sql_branch -->
<g id="node3" class="node">
<title>sql_branch</title>
<path fill="#f0fdf4" stroke="#334155" d="M1358.41,-435.33C1358.41,-435.33 1296.88,-435.33 1296.88,-435.33 1290.88,-435.33 1284.88,-429.33 1284.88,-423.33 1284.88,-423.33 1284.88,-411.33 1284.88,-411.33 1284.88,-405.33 1290.88,-399.33 1296.88,-399.33 1296.88,-399.33 1358.41,-399.33 1358.41,-399.33 1364.41,-399.33 1370.41,-405.33 1370.41,-411.33 1370.41,-411.33 1370.41,-423.33 1370.41,-423.33 1370.41,-429.33 1364.41,-435.33 1358.41,-435.33"/>
<text xml:space="preserve" text-anchor="middle" x="1327.64" y="-414.95" font-family="Segoe UI" font-size="10.00">SQL Definitions</text>
</g>
<!-- root&#45;&gt;sql_branch -->
<g id="edge2" class="edge">
<title>root&#45;&gt;sql_branch</title>
<path fill="none" stroke="#475569" d="M1110.54,-487.52C1159.56,-471.9 1230.17,-449.4 1277.41,-434.34"/>
<polygon fill="#475569" stroke="#475569" points="1277.84,-436.59 1283.35,-432.45 1276.46,-432.25 1277.84,-436.59"/>
</g>
<!-- data_branch -->
<g id="node4" class="node">
<title>data_branch</title>
<path fill="#fffbeb" stroke="#334155" d="M741.91,-435.33C741.91,-435.33 677.38,-435.33 677.38,-435.33 671.38,-435.33 665.38,-429.33 665.38,-423.33 665.38,-423.33 665.38,-411.33 665.38,-411.33 665.38,-405.33 671.38,-399.33 677.38,-399.33 677.38,-399.33 741.91,-399.33 741.91,-399.33 747.91,-399.33 753.91,-405.33 753.91,-411.33 753.91,-411.33 753.91,-423.33 753.91,-423.33 753.91,-429.33 747.91,-435.33 741.91,-435.33"/>
<text xml:space="preserve" text-anchor="middle" x="709.64" y="-414.95" font-family="Segoe UI" font-size="10.00">Data + Outputs</text>
</g>
<!-- root&#45;&gt;data_branch -->
<g id="edge3" class="edge">
<title>root&#45;&gt;data_branch</title>
<path fill="none" stroke="#475569" d="M998.83,-491.26C933.4,-474.76 825.82,-447.63 761.95,-431.52"/>
<polygon fill="#475569" stroke="#475569" points="762.71,-429.37 755.85,-429.98 761.6,-433.78 762.71,-429.37"/>
</g>
<!-- etl_pipeline -->
<g id="node5" class="node">
<title>etl_pipeline</title>
<path fill="#f8fafc" stroke="#334155" d="M891.53,-348.33C891.53,-348.33 785.75,-348.33 785.75,-348.33 779.75,-348.33 773.75,-342.33 773.75,-336.33 773.75,-336.33 773.75,-320.31 773.75,-320.31 773.75,-314.31 779.75,-308.31 785.75,-308.31 785.75,-308.31 891.53,-308.31 891.53,-308.31 897.53,-308.31 903.53,-314.31 903.53,-320.31 903.53,-320.31 903.53,-336.33 903.53,-336.33 903.53,-342.33 897.53,-348.33 891.53,-348.33"/>
<text xml:space="preserve" text-anchor="middle" x="838.64" y="-333.07" font-family="Segoe UI" font-size="10.00">etl_pipeline.py</text>
<text xml:space="preserve" text-anchor="middle" x="838.64" y="-318.82" font-family="Segoe UI" font-size="10.00">ETL + benchmark rebuild</text>
</g>
<!-- code_branch&#45;&gt;etl_pipeline -->
<g id="edge4" class="edge">
<title>code_branch&#45;&gt;etl_pipeline</title>
<path fill="none" stroke="#475569" d="M1019.46,-402.16C985.47,-388.47 933.47,-367.52 893.95,-351.6"/>
<polygon fill="#475569" stroke="#475569" points="895.01,-349.57 888.13,-349.25 893.31,-353.79 895.01,-349.57"/>
</g>
<!-- diagnostics -->
<g id="node6" class="node">
<title>diagnostics</title>
<path fill="#f8fafc" stroke="#334155" d="M558.91,-348.33C558.91,-348.33 488.38,-348.33 488.38,-348.33 482.38,-348.33 476.38,-342.33 476.38,-336.33 476.38,-336.33 476.38,-320.31 476.38,-320.31 476.38,-314.31 482.38,-308.31 488.38,-308.31 488.38,-308.31 558.91,-308.31 558.91,-308.31 564.91,-308.31 570.91,-314.31 570.91,-320.31 570.91,-320.31 570.91,-336.33 570.91,-336.33 570.91,-342.33 564.91,-348.33 558.91,-348.33"/>
<text xml:space="preserve" text-anchor="middle" x="523.64" y="-333.07" font-family="Segoe UI" font-size="10.00">diagnostics.py</text>
<text xml:space="preserve" text-anchor="middle" x="523.64" y="-318.82" font-family="Segoe UI" font-size="10.00">DB health checks</text>
</g>
<!-- code_branch&#45;&gt;diagnostics -->
<g id="edge5" class="edge">
<title>code_branch&#45;&gt;diagnostics</title>
<path fill="none" stroke="#475569" d="M1019.39,-410.55C928.91,-395.73 687.93,-356.24 578.76,-338.35"/>
<polygon fill="#475569" stroke="#475569" points="579.4,-336.15 572.62,-337.35 578.67,-340.64 579.4,-336.15"/>
</g>
<!-- ai_reporter -->
<g id="node7" class="node">
<title>ai_reporter</title>
<path fill="#f8fafc" stroke="#334155" d="M1201.78,-245.56C1201.78,-245.56 1067.5,-245.56 1067.5,-245.56 1061.5,-245.56 1055.5,-239.56 1055.5,-233.56 1055.5,-233.56 1055.5,-217.54 1055.5,-217.54 1055.5,-211.54 1061.5,-205.54 1067.5,-205.54 1067.5,-205.54 1201.78,-205.54 1201.78,-205.54 1207.78,-205.54 1213.78,-211.54 1213.78,-217.54 1213.78,-217.54 1213.78,-233.56 1213.78,-233.56 1213.78,-239.56 1207.78,-245.56 1201.78,-245.56"/>
<text xml:space="preserve" text-anchor="middle" x="1134.64" y="-230.3" font-family="Segoe UI" font-size="10.00">ai_reporter.py</text>
<text xml:space="preserve" text-anchor="middle" x="1134.64" y="-216.05" font-family="Segoe UI" font-size="10.00">Anomaly context + AI narrative</text>
</g>
<!-- code_branch&#45;&gt;ai_reporter -->
<g id="edge6" class="edge">
<title>code_branch&#45;&gt;ai_reporter</title>
<path fill="none" stroke="#475569" d="M1078.54,-398.87C1094.02,-386.39 1113.51,-368.32 1125.64,-348.33 1144.11,-317.92 1148.61,-305.92 1144.64,-270.56 1144,-264.89 1142.92,-258.88 1141.69,-253.18"/>
<polygon fill="#475569" stroke="#475569" points="1143.98,-252.97 1140.3,-247.15 1139.55,-253.99 1143.98,-252.97"/>
</g>
<!-- pdf_report -->
<g id="node8" class="node">
<title>pdf_report</title>
<path fill="#f8fafc" stroke="#334155" d="M1101.53,-348.33C1101.53,-348.33 1007.75,-348.33 1007.75,-348.33 1001.75,-348.33 995.75,-342.33 995.75,-336.33 995.75,-336.33 995.75,-320.31 995.75,-320.31 995.75,-314.31 1001.75,-308.31 1007.75,-308.31 1007.75,-308.31 1101.53,-308.31 1101.53,-308.31 1107.53,-308.31 1113.53,-314.31 1113.53,-320.31 1113.53,-320.31 1113.53,-336.33 1113.53,-336.33 1113.53,-342.33 1107.53,-348.33 1101.53,-348.33"/>
<text xml:space="preserve" text-anchor="middle" x="1054.64" y="-333.07" font-family="Segoe UI" font-size="10.00">pdf_report.py</text>
<text xml:space="preserve" text-anchor="middle" x="1054.64" y="-318.82" font-family="Segoe UI" font-size="10.00">PDF memo generation</text>
</g>
<!-- code_branch&#45;&gt;pdf_report -->
<g id="edge7" class="edge">
<title>code_branch&#45;&gt;pdf_report</title>
<path fill="none" stroke="#475569" d="M1054.64,-399.14C1054.64,-386.97 1054.64,-370.39 1054.64,-356.45"/>
<polygon fill="#475569" stroke="#475569" points="1056.92,-356.61 1054.64,-350.11 1052.37,-356.61 1056.92,-356.61"/>
</g>
<!-- schema_router -->
<g id="node9" class="node">
<title>schema_router</title>
<path fill="#f8fafc" stroke="#334155" d="M1218.03,-142.79C1218.03,-142.79 1133.25,-142.79 1133.25,-142.79 1127.25,-142.79 1121.25,-136.79 1121.25,-130.79 1121.25,-130.79 1121.25,-114.77 1121.25,-114.77 1121.25,-108.77 1127.25,-102.77 1133.25,-102.77 1133.25,-102.77 1218.03,-102.77 1218.03,-102.77 1224.03,-102.77 1230.03,-108.77 1230.03,-114.77 1230.03,-114.77 1230.03,-130.79 1230.03,-130.79 1230.03,-136.79 1224.03,-142.79 1218.03,-142.79"/>
<text xml:space="preserve" text-anchor="middle" x="1175.64" y="-127.53" font-family="Segoe UI" font-size="10.00">schema_router.py</text>
<text xml:space="preserve" text-anchor="middle" x="1175.64" y="-113.28" font-family="Segoe UI" font-size="10.00">SQL identifier router</text>
</g>
<!-- code_branch&#45;&gt;schema_router -->
<g id="edge8" class="edge">
<title>code_branch&#45;&gt;schema_router</title>
<path fill="none" stroke="#475569" d="M1086.47,-398.95C1098.74,-391.82 1112.67,-383.17 1124.64,-374.33 1183.39,-330.98 1202.32,-314.4 1226.64,-245.56 1238.17,-212.93 1245.63,-198.99 1230.64,-167.79 1227.07,-160.36 1221.57,-153.8 1215.4,-148.15"/>
<polygon fill="#475569" stroke="#475569" points="1217.18,-146.67 1210.74,-144.21 1214.24,-150.15 1217.18,-146.67"/>
</g>
<!-- q_ddl -->
<g id="node10" class="node">
<title>q_ddl</title>
<path fill="#f8fafc" stroke="#334155" d="M1106.41,-38.01C1106.41,-38.01 1008.88,-38.01 1008.88,-38.01 1002.88,-38.01 996.88,-32.01 996.88,-26.01 996.88,-26.01 996.88,-14.01 996.88,-14.01 996.88,-8.01 1002.88,-2.01 1008.88,-2.01 1008.88,-2.01 1106.41,-2.01 1106.41,-2.01 1112.41,-2.01 1118.41,-8.01 1118.41,-14.01 1118.41,-14.01 1118.41,-26.01 1118.41,-26.01 1118.41,-32.01 1112.41,-38.01 1106.41,-38.01"/>
<text xml:space="preserve" text-anchor="middle" x="1057.64" y="-17.63" font-family="Segoe UI" font-size="10.00">queries/ddl_schema.sql</text>
</g>
<!-- sql_branch&#45;&gt;q_ddl -->
<g id="edge9" class="edge">
<title>sql_branch&#45;&gt;q_ddl</title>
<path fill="none" stroke="#475569" d="M1319.59,-399.08C1312.28,-381.82 1302.64,-354.31 1302.64,-329.32 1302.64,-329.32 1302.64,-329.32 1302.64,-121.78 1302.64,-37.14 1213.05,-59.32 1130.64,-40.02 1129.16,-39.67 1127.66,-39.32 1126.15,-38.96"/>
<polygon fill="#475569" stroke="#475569" points="1126.85,-36.79 1120,-37.46 1125.78,-41.21 1126.85,-36.79"/>
</g>
<!-- q_bench -->
<g id="node11" class="node">
<title>q_bench</title>
<path fill="#f8fafc" stroke="#334155" d="M1532.53,-38.01C1532.53,-38.01 1366.75,-38.01 1366.75,-38.01 1360.75,-38.01 1354.75,-32.01 1354.75,-26.01 1354.75,-26.01 1354.75,-14.01 1354.75,-14.01 1354.75,-8.01 1360.75,-2.01 1366.75,-2.01 1366.75,-2.01 1532.53,-2.01 1532.53,-2.01 1538.53,-2.01 1544.53,-8.01 1544.53,-14.01 1544.53,-14.01 1544.53,-26.01 1544.53,-26.01 1544.53,-32.01 1538.53,-38.01 1532.53,-38.01"/>
<text xml:space="preserve" text-anchor="middle" x="1449.64" y="-17.63" font-family="Segoe UI" font-size="10.00">queries/populate_dim_benchmarks.sql</text>
</g>
<!-- sql_branch&#45;&gt;q_bench -->
<g id="edge10" class="edge">
<title>sql_branch&#45;&gt;q_bench</title>
<path fill="none" stroke="#475569" d="M1370.65,-404.86C1405.78,-392.58 1449.64,-369.25 1449.64,-329.32 1449.64,-329.32 1449.64,-329.32 1449.64,-121.78 1449.64,-96.1 1449.64,-66.74 1449.64,-46.36"/>
<polygon fill="#475569" stroke="#475569" points="1451.92,-46.5 1449.64,-40 1447.37,-46.5 1451.92,-46.5"/>
</g>
<!-- q_views -->
<g id="node12" class="node">
<title>q_views</title>
<path fill="#f8fafc" stroke="#334155" d="M1317.66,-40.02C1317.66,-40.02 1155.62,-40.02 1155.62,-40.02 1149.62,-40.02 1143.62,-34.02 1143.62,-28.02 1143.62,-28.02 1143.62,-12 1143.62,-12 1143.62,-6 1149.62,0 1155.62,0 1155.62,0 1317.66,0 1317.66,0 1323.66,0 1329.66,-6 1329.66,-12 1329.66,-12 1329.66,-28.02 1329.66,-28.02 1329.66,-34.02 1323.66,-40.02 1317.66,-40.02"/>
<text xml:space="preserve" text-anchor="middle" x="1236.64" y="-24.76" font-family="Segoe UI" font-size="10.00">queries/v_*.sql</text>
<text xml:space="preserve" text-anchor="middle" x="1236.64" y="-10.51" font-family="Segoe UI" font-size="10.00">(3 anomaly/benchmark view SQL files)</text>
</g>
<!-- sql_branch&#45;&gt;q_views -->
<g id="edge11" class="edge">
<title>sql_branch&#45;&gt;q_views</title>
<path fill="none" stroke="#475569" d="M1336.01,-399.12C1343.61,-381.88 1353.64,-354.39 1353.64,-329.32 1353.64,-329.32 1353.64,-329.32 1353.64,-121.78 1353.64,-86.39 1322.53,-60.7 1292.39,-44.12"/>
<polygon fill="#475569" stroke="#475569" points="1293.73,-42.26 1286.92,-41.22 1291.6,-46.28 1293.73,-42.26"/>
</g>
<!-- cms_zip -->
<g id="node13" class="node">
<title>cms_zip</title>
<path fill="#f8fafc" stroke="#334155" d="M769.66,-243.55C769.66,-243.55 685.63,-243.55 685.63,-243.55 679.63,-243.55 673.63,-237.55 673.63,-231.55 673.63,-231.55 673.63,-219.55 673.63,-219.55 673.63,-213.55 679.63,-207.55 685.63,-207.55 685.63,-207.55 769.66,-207.55 769.66,-207.55 775.66,-207.55 781.66,-213.55 781.66,-219.55 781.66,-219.55 781.66,-231.55 781.66,-231.55 781.66,-237.55 775.66,-243.55 769.66,-243.55"/>
<text xml:space="preserve" text-anchor="middle" x="727.64" y="-223.17" font-family="Segoe UI" font-size="10.00">data/cms_source.zip</text>
</g>
<!-- data_branch&#45;&gt;cms_zip -->
<g id="edge12" class="edge">
<title>data_branch&#45;&gt;cms_zip</title>
<path fill="none" stroke="#475569" d="M711.27,-399.15C714.46,-365.51 721.55,-290.79 725.26,-251.62"/>
<polygon fill="#475569" stroke="#475569" points="727.51,-252.02 725.86,-245.33 722.98,-251.59 727.51,-252.02"/>
</g>
<!-- db_state -->
<g id="node14" class="node">
<title>db_state</title>
<path fill="#f8fafc" stroke="#334155" d="M895.41,-142.79C895.41,-142.79 767.88,-142.79 767.88,-142.79 761.88,-142.79 755.88,-136.79 755.88,-130.79 755.88,-130.79 755.88,-114.77 755.88,-114.77 755.88,-108.77 761.88,-102.77 767.88,-102.77 767.88,-102.77 895.41,-102.77 895.41,-102.77 901.41,-102.77 907.41,-108.77 907.41,-114.77 907.41,-114.77 907.41,-130.79 907.41,-130.79 907.41,-136.79 901.41,-142.79 895.41,-142.79"/>
<text xml:space="preserve" text-anchor="middle" x="831.64" y="-127.53" font-family="Segoe UI" font-size="10.00">data/cms_outliers_&lt;state&gt;.db</text>
<text xml:space="preserve" text-anchor="middle" x="831.64" y="-113.28" font-family="Segoe UI" font-size="10.00">SQLite warehouse</text>
</g>
<!-- data_branch&#45;&gt;db_state -->
<g id="edge13" class="edge">
<title>data_branch&#45;&gt;db_state</title>
<path fill="none" stroke="#475569" d="M665.18,-404.11C615.9,-390.55 534.06,-367.98 463.64,-348.33 295.85,-301.52 76.15,-378.28 98.64,-205.54 100.88,-188.33 95.21,-178.79 108.64,-167.79 157.08,-128.11 567.75,-123.53 747.72,-123.46"/>
<polygon fill="#475569" stroke="#475569" points="747.57,-125.73 754.07,-123.46 747.57,-121.18 747.57,-125.73"/>
</g>
<!-- reports_dir -->
<g id="node15" class="node">
<title>reports_dir</title>
<path fill="#f8fafc" stroke="#334155" d="M1018.53,-243.55C1018.53,-243.55 966.75,-243.55 966.75,-243.55 960.75,-243.55 954.75,-237.55 954.75,-231.55 954.75,-231.55 954.75,-219.55 954.75,-219.55 954.75,-213.55 960.75,-207.55 966.75,-207.55 966.75,-207.55 1018.53,-207.55 1018.53,-207.55 1024.53,-207.55 1030.53,-213.55 1030.53,-219.55 1030.53,-219.55 1030.53,-231.55 1030.53,-231.55 1030.53,-237.55 1024.53,-243.55 1018.53,-243.55"/>
<text xml:space="preserve" text-anchor="middle" x="992.64" y="-223.17" font-family="Segoe UI" font-size="10.00">reports/*.pdf</text>
</g>
<!-- data_branch&#45;&gt;reports_dir -->
<g id="edge14" class="edge">
<title>data_branch&#45;&gt;reports_dir</title>
<path fill="none" stroke="#475569" d="M754.36,-410.53C799.12,-402.81 867.99,-385.53 915.64,-348.33 948.62,-322.58 971.38,-278.49 983.19,-251.02"/>
<polygon fill="#475569" stroke="#475569" points="985.24,-252.01 985.65,-245.13 981.04,-250.25 985.24,-252.01"/>
</g>
<!-- terminal_out -->
<g id="node16" class="node">
<title>terminal_out</title>
<path fill="#fdf2f8" stroke="#334155" d="M149.28,-140.78C149.28,-140.78 12,-140.78 12,-140.78 6,-140.78 0,-134.78 0,-128.78 0,-128.78 0,-116.78 0,-116.78 0,-110.78 6,-104.78 12,-104.78 12,-104.78 149.28,-104.78 149.28,-104.78 155.28,-104.78 161.28,-110.78 161.28,-116.78 161.28,-116.78 161.28,-128.78 161.28,-128.78 161.28,-134.78 155.28,-140.78 149.28,-140.78"/>
<text xml:space="preserve" text-anchor="middle" x="80.64" y="-120.41" font-family="Segoe UI" font-size="10.00">Terminal diagnostics/log output</text>
</g>
<!-- data_branch&#45;&gt;terminal_out -->
<g id="edge15" class="edge">
<title>data_branch&#45;&gt;terminal_out</title>
<path fill="none" stroke="#475569" d="M664.97,-415.92C546.36,-414.09 226.64,-403.97 139.64,-348.33 73.51,-306.04 73.85,-198.15 77.8,-148.94"/>
<polygon fill="#475569" stroke="#475569" points="80.06,-149.2 78.37,-142.52 75.53,-148.79 80.06,-149.2"/>
</g>
<!-- etl_pipeline&#45;&gt;q_ddl -->
<g id="edge18" class="edge">
<title>etl_pipeline&#45;&gt;q_ddl</title>
<path fill="none" stroke="#475569" d="M855.01,-307.84C878.06,-280.15 921,-227.56 954.64,-180.54 988.17,-133.68 1023.93,-76.44 1043.24,-44.84"/>
<polygon fill="#475569" stroke="#475569" points="1045.1,-46.16 1046.54,-39.42 1041.22,-43.79 1045.1,-46.16"/>
<text xml:space="preserve" text-anchor="middle" x="996.73" y="-171.99" font-family="Segoe UI" font-size="9.00">initializes schema</text>
</g>
<!-- etl_pipeline&#45;&gt;cms_zip -->
<g id="edge16" class="edge">
<title>etl_pipeline&#45;&gt;cms_zip</title>
<path fill="none" stroke="#475569" d="M786.01,-307.97C773.66,-301.57 761.36,-293.42 751.89,-283.31 743.58,-274.43 737.87,-262.28 734.09,-251.49"/>
<polygon fill="#475569" stroke="#475569" points="736.29,-250.88 732.13,-245.39 731.95,-252.27 736.29,-250.88"/>
<text xml:space="preserve" text-anchor="middle" x="782.27" y="-274.76" font-family="Segoe UI" font-size="9.00">download/read</text>
</g>
<!-- etl_pipeline&#45;&gt;db_state -->
<g id="edge17" class="edge">
<title>etl_pipeline&#45;&gt;db_state</title>
<path fill="none" stroke="#475569" d="M837.98,-308.17C836.73,-271.8 834.01,-192.64 832.57,-150.86"/>
<polygon fill="#475569" stroke="#475569" points="834.85,-150.96 832.35,-144.54 830.3,-151.11 834.85,-150.96"/>
<text xml:space="preserve" text-anchor="middle" x="858.97" y="-223.37" font-family="Segoe UI" font-size="9.00">loads tables</text>
</g>
<!-- diagnostics&#45;&gt;schema_router -->
<g id="edge22" class="edge">
<title>diagnostics&#45;&gt;schema_router</title>
<path fill="none" stroke="#475569" d="M528.93,-308.02C537.57,-280.39 557.54,-230.21 593.89,-205.54 636.39,-176.7 972.21,-142.62 1113.43,-129.41"/>
<polygon fill="#475569" stroke="#475569" points="1113.45,-131.69 1119.72,-128.82 1113.03,-127.16 1113.45,-131.69"/>
<text xml:space="preserve" text-anchor="middle" x="627.27" y="-223.37" font-family="Segoe UI" font-size="9.00">reconcile objects</text>
</g>
<!-- diag_resolve -->
<g id="node17" class="node">
<title>diag_resolve</title>
<path fill="#faf5ff" stroke="#334155" d="M519.16,-243.55C519.16,-243.55 414.13,-243.55 414.13,-243.55 408.13,-243.55 402.13,-237.55 402.13,-231.55 402.13,-231.55 402.13,-219.55 402.13,-219.55 402.13,-213.55 408.13,-207.55 414.13,-207.55 414.13,-207.55 519.16,-207.55 519.16,-207.55 525.16,-207.55 531.16,-213.55 531.16,-219.55 531.16,-219.55 531.16,-231.55 531.16,-231.55 531.16,-237.55 525.16,-243.55 519.16,-243.55"/>
<text xml:space="preserve" text-anchor="middle" x="466.64" y="-223.17" font-family="Segoe UI" font-size="10.00">resolve_target_db_path()</text>
</g>
<!-- diagnostics&#45;&gt;diag_resolve -->
<g id="edge27" class="edge">
<title>diagnostics&#45;&gt;diag_resolve</title>
<path fill="none" stroke="#475569" d="M512.65,-307.89C503.4,-291.53 490.12,-268.06 480.21,-250.54"/>
<polygon fill="#475569" stroke="#475569" points="482.38,-249.76 477.2,-245.22 478.42,-252 482.38,-249.76"/>
</g>
<!-- diag_run -->
<g id="node18" class="node">
<title>diag_run</title>
<path fill="#faf5ff" stroke="#334155" d="M193.91,-243.55C193.91,-243.55 123.38,-243.55 123.38,-243.55 117.38,-243.55 111.38,-237.55 111.38,-231.55 111.38,-231.55 111.38,-219.55 111.38,-219.55 111.38,-213.55 117.38,-207.55 123.38,-207.55 123.38,-207.55 193.91,-207.55 193.91,-207.55 199.91,-207.55 205.91,-213.55 205.91,-219.55 205.91,-219.55 205.91,-231.55 205.91,-231.55 205.91,-237.55 199.91,-243.55 193.91,-243.55"/>
<text xml:space="preserve" text-anchor="middle" x="158.64" y="-223.17" font-family="Segoe UI" font-size="10.00">run_diagnostics()</text>
</g>
<!-- diagnostics&#45;&gt;diag_run -->
<g id="edge28" class="edge">
<title>diagnostics&#45;&gt;diag_run</title>
<path fill="none" stroke="#475569" d="M475.92,-314.15C408.43,-295.51 285.37,-261.54 213.96,-241.82"/>
<polygon fill="#475569" stroke="#475569" points="214.7,-239.67 207.83,-240.13 213.49,-244.05 214.7,-239.67"/>
</g>
<!-- ai_reporter&#45;&gt;schema_router -->
<g id="edge23" class="edge">
<title>ai_reporter&#45;&gt;schema_router</title>
<path fill="none" stroke="#475569" d="M1142.55,-205.12C1148.9,-189.51 1157.89,-167.42 1164.89,-150.2"/>
<polygon fill="#475569" stroke="#475569" points="1166.85,-151.43 1167.19,-144.55 1162.63,-149.72 1166.85,-151.43"/>
<text xml:space="preserve" text-anchor="middle" x="1190.97" y="-171.99" font-family="Segoe UI" font-size="9.00">reconcile objects</text>
</g>
<!-- ai_reporter&#45;&gt;db_state -->
<g id="edge24" class="edge">
<title>ai_reporter&#45;&gt;db_state</title>
<path fill="none" stroke="#475569" d="M1055.41,-207.88C1051.09,-207.07 1046.82,-206.28 1042.64,-205.54 967.98,-192.31 938.96,-219.46 873.89,-180.54 861.75,-173.28 851.99,-161.08 844.92,-149.84"/>
<polygon fill="#475569" stroke="#475569" points="846.92,-148.75 841.64,-144.32 843,-151.07 846.92,-148.75"/>
<text xml:space="preserve" text-anchor="middle" x="913.27" y="-171.99" font-family="Segoe UI" font-size="9.00">reads top anomalies</text>
</g>
<!-- pdf_report&#45;&gt;ai_reporter -->
<g id="edge25" class="edge">
<title>pdf_report&#45;&gt;ai_reporter</title>
<path fill="none" stroke="#475569" d="M1054.85,-307.98C1055.82,-296.26 1058.65,-281.52 1066.14,-270.56 1071.44,-262.81 1078.6,-256.12 1086.3,-250.46"/>
<polygon fill="#475569" stroke="#475569" points="1087.54,-252.37 1091.61,-246.81 1084.97,-248.62 1087.54,-252.37"/>
<text xml:space="preserve" text-anchor="middle" x="1104.39" y="-274.76" font-family="Segoe UI" font-size="9.00">uses audit narrative</text>
</g>
<!-- pdf_report&#45;&gt;reports_dir -->
<g id="edge26" class="edge">
<title>pdf_report&#45;&gt;reports_dir</title>
<path fill="none" stroke="#475569" d="M1013.93,-307.99C1004.62,-301.52 995.91,-293.34 990.64,-283.31 985.64,-273.81 985.26,-262.12 986.47,-251.82"/>
<polygon fill="#475569" stroke="#475569" points="988.71,-252.21 987.48,-245.43 984.22,-251.49 988.71,-252.21"/>
<text xml:space="preserve" text-anchor="middle" x="1013.14" y="-274.76" font-family="Segoe UI" font-size="9.00">writes PDFs</text>
</g>
<!-- schema_router&#45;&gt;q_ddl -->
<g id="edge19" class="edge">
<title>schema_router&#45;&gt;q_ddl</title>
<path fill="none" stroke="#475569" d="M1152.89,-102.35C1133.14,-85.48 1104.54,-61.06 1083.84,-43.39"/>
<polygon fill="#475569" stroke="#475569" points="1085.53,-41.84 1079.11,-39.34 1082.57,-45.3 1085.53,-41.84"/>
<text xml:space="preserve" text-anchor="middle" x="1157.08" y="-69.22" font-family="Segoe UI" font-size="9.00">reads/normalizes</text>
</g>
<!-- schema_router&#45;&gt;q_bench -->
<g id="edge20" class="edge">
<title>schema_router&#45;&gt;q_bench</title>
<path fill="none" stroke="#475569" d="M1228.47,-102.35C1276.4,-84.72 1346.76,-58.85 1395.18,-41.04"/>
<polygon fill="#475569" stroke="#475569" points="1395.72,-43.26 1401.04,-38.88 1394.15,-38.99 1395.72,-43.26"/>
<text xml:space="preserve" text-anchor="middle" x="1346.29" y="-69.22" font-family="Segoe UI" font-size="9.00">executes</text>
</g>
<!-- schema_router&#45;&gt;q_views -->
<g id="edge21" class="edge">
<title>schema_router&#45;&gt;q_views</title>
<path fill="none" stroke="#475569" d="M1187.4,-102.35C1196.94,-86.6 1210.46,-64.25 1220.93,-46.97"/>
<polygon fill="#475569" stroke="#475569" points="1222.71,-48.41 1224.13,-41.67 1218.82,-46.06 1222.71,-48.41"/>
<text xml:space="preserve" text-anchor="middle" x="1227.04" y="-69.22" font-family="Segoe UI" font-size="9.00">executes</text>
</g>
<!-- diag_run&#45;&gt;terminal_out -->
<g id="edge30" class="edge">
<title>diag_run&#45;&gt;terminal_out</title>
<path fill="none" stroke="#475569" d="M145.41,-207.46C132.52,-190.81 112.84,-165.38 98.56,-146.93"/>
<polygon fill="#475569" stroke="#475569" points="100.64,-145.9 94.86,-142.15 97.04,-148.69 100.64,-145.9"/>
<text xml:space="preserve" text-anchor="middle" x="179.06" y="-171.99" font-family="Segoe UI" font-size="9.00">row counts + coverage logs</text>
</g>
<!-- diag_join -->
<g id="node19" class="node">
<title>diag_join</title>
<path fill="#faf5ff" stroke="#334155" d="M365.41,-245.56C365.41,-245.56 267.88,-245.56 267.88,-245.56 261.88,-245.56 255.88,-239.56 255.88,-233.56 255.88,-233.56 255.88,-217.54 255.88,-217.54 255.88,-211.54 261.88,-205.54 267.88,-205.54 267.88,-205.54 365.41,-205.54 365.41,-205.54 371.41,-205.54 377.41,-211.54 377.41,-217.54 377.41,-217.54 377.41,-233.56 377.41,-233.56 377.41,-239.56 371.41,-245.56 365.41,-245.56"/>
<text xml:space="preserve" text-anchor="middle" x="316.64" y="-230.3" font-family="Segoe UI" font-size="10.00">Full join integrity check</text>
<text xml:space="preserve" text-anchor="middle" x="316.64" y="-216.05" font-family="Segoe UI" font-size="10.00">(fact &#45;&gt; dim_providers)</text>
</g>
<!-- diag_run&#45;&gt;diag_join -->
<g id="edge29" class="edge">
<title>diag_run&#45;&gt;diag_join</title>
<path fill="none" stroke="#475569" d="M206.16,-225.55C220.12,-225.55 234.08,-225.55 248.04,-225.55"/>
<polygon fill="#475569" stroke="#475569" points="247.78,-227.83 254.28,-225.55 247.78,-223.28 247.78,-227.83"/>
</g>
</g>
</svg>
